<?xml version="1.0" encoding="UTF-8" standalone="no"?>
<!-- Created with Inkscape (http://www.inkscape.org/) -->

<svg
   width="107.41255mm"
   height="107.48843mm"
   viewBox="0 0 107.41255 107.48843"
   version="1.1"
   id="svg5"
   inkscape:version="1.1 (c68e22c387, 2021-05-23)"
   sodipodi:docname="world.svg"
   xmlns:inkscape="http://www.inkscape.org/namespaces/inkscape"
   xmlns:sodipodi="http://sodipodi.sourceforge.net/DTD/sodipodi-0.dtd"
   xmlns="http://www.w3.org/2000/svg"
   xmlns:svg="http://www.w3.org/2000/svg">
  <sodipodi:namedview
     id="namedview7"
     pagecolor="#505050"
     bordercolor="#ffffff"
     borderopacity="1"
     inkscape:pageshadow="0"
     inkscape:pageopacity="0"
     inkscape:pagecheckerboard="1"
     inkscape:document-units="mm"
     showgrid="false"
     fit-margin-top="0"
     fit-margin-left="0"
     fit-margin-right="0"
     fit-margin-bottom="0"
     inkscape:zoom="0.77771465"
     inkscape:cx="124.72441"
     inkscape:cy="35.360013"
     inkscape:window-width="2560"
     inkscape:window-height="1387"
     inkscape:window-x="-8"
     inkscape:window-y="-8"
     inkscape:window-maximized="1"
     inkscape:current-layer="layer1" />
  <defs
     id="defs2" />
  <g
     inkscape:label="Ebene 1"
     inkscape:groupmode="layer"
     id="layer1"
     transform="translate(-29.321504,-139.21564)">
    <path
       style="fill:#ffffff;stroke-width:1;fill-opacity:1"
       d="M 74.274985,245.95829 C 31.52478,238.78506 14.381029,186.58297 44.527635,155.37869 74.75477,124.09105 128.596,140.75412 135.94677,183.67155 c 6.22921,36.36925 -25.45015,68.3645 -61.671785,62.28674 z m 19.036082,-2.59622 c 22.138853,-4.72746 38.187183,-22.45007 40.985723,-45.26169 0.20318,-1.6562 0.19385,-1.67569 -0.80282,-1.67569 -1.33323,0 -1.59733,-0.37932 -2.70462,-3.8845 -1.25603,-3.97602 -3.18739,-6.30661 -5.24583,-6.33017 -0.76319,-0.009 -2.27132,-0.31736 -3.35139,-0.68583 -2.2715,-0.77493 -4.70969,-1.18853 -4.4407,-0.75329 0.10158,0.16437 0.93303,0.55384 1.84765,0.86548 3.21216,1.09449 4.29393,3.32665 2.1645,4.46629 -0.40791,0.21831 -1.44831,0.93632 -2.31199,1.59558 -2.76778,2.1127 -4.31867,1.47093 -5.27254,-2.18183 -0.91629,-3.50887 -4.01744,-6.39198 -4.00141,-3.72007 0.006,1.00307 1.67492,4.20774 2.39079,4.59086 0.37884,0.20275 0.96783,0.96944 1.30887,1.70375 0.95085,2.04731 2.19478,2.92684 3.79342,2.68215 1.22735,-0.18786 1.32292,-0.13932 1.32292,0.6719 0,1.1308 -0.68593,3.09634 -1.08055,3.09634 -1.81205,0 -3.50556,3.44973 -3.50556,7.14094 0,3.80188 0,3.80188 -1.39772,4.76867 -1.24097,0.85835 -1.39923,1.13032 -1.41111,2.42495 -0.0104,1.13622 -0.1634,1.49739 -0.69285,1.63584 -0.42622,0.11146 -0.84438,0.72815 -1.12197,1.65468 -0.7556,2.52195 -4.72019,5.31108 -6.94138,4.88332 -0.75429,-0.14526 -2.0282,-3.85622 -2.32787,-6.78123 -0.12692,-1.23878 -0.40316,-2.74689 -0.613879,-3.35134 -0.311266,-0.8929 -0.271498,-1.26937 0.212039,-2.00734 0.69662,-1.06318 0.40157,-2.10264 -1.321454,-4.65542 -0.904519,-1.3401 -0.997808,-1.71794 -0.792579,-3.21012 0.402431,-2.92603 -4.430695,-4.69195 -8.345364,-3.04922 -1.838219,0.77139 -5.551791,-3.92101 -4.662981,-5.89204 0.359396,-0.797 0.60489,-1.81961 0.545546,-2.27246 -0.173655,-1.32517 0.585512,-3.10379 1.66564,-3.90236 0.551011,-0.40738 1.093766,-1.20034 1.206126,-1.76214 0.403722,-2.01861 2.088145,-3.15315 4.954538,-3.3371 1.441874,-0.0925 2.926786,-0.40369 3.418692,-0.71637 1.051454,-0.66835 2.285629,-0.30626 2.627499,0.77088 0.321229,1.0121 2.098317,1.85053 4.220897,1.9914 0.98029,0.0651 2.51949,0.21816 3.42045,0.3402 2.00669,0.27181 2.90825,-0.163 3.67105,-1.77049 0.75396,-1.58886 0.52815,-1.85634 -1.81424,-2.14901 -1.24807,-0.15593 -2.19528,-0.49551 -2.60304,-0.93319 -0.68515,-0.73542 -1.21931,-0.38071 -0.85528,0.56795 0.1553,0.4047 0.006,0.561 -0.53675,0.561 -0.47756,0 -0.87441,-0.32188 -1.08734,-0.88194 -0.20961,-0.5513 -0.61091,-0.88195 -1.07043,-0.88195 -0.4043,0 -0.65125,0.13568 -0.54877,0.3015 0.29561,0.4783 -1.4434,1.92628 -1.94278,1.61765 -0.311643,-0.19261 -0.21676,-0.35374 0.32666,-0.55476 0.9557,-0.35354 0.97096,-0.83432 0.0517,-1.62897 -0.39279,-0.33955 -1.085681,-0.97455 -1.539759,-1.41111 -1.038849,-0.99878 -1.192649,-0.99213 -2.042438,0.0882 -0.381558,0.48507 -1.004697,0.88194 -1.384759,0.88194 -0.380065,0 -0.789354,0.27782 -0.909535,0.61736 -1.273379,3.59772 -5.575004,3.15364 -5.076427,-0.52406 0.305721,-2.25511 0.414119,-2.37252 2.127293,-2.30421 1.374334,0.0548 1.567103,-0.71971 0.577603,-2.32076 -0.109223,-0.17672 0.289835,-0.41899 0.886795,-0.53839 1.059233,-0.21185 4.547613,-3.35989 4.547613,-4.10394 0,-0.62317 0.651189,-0.37249 0.876504,0.33742 0.568632,1.7916 4.20152,1.45944 4.60361,-0.4209 0.13519,-0.6322 0.40395,-1.34584 0.59724,-1.58585 0.19329,-0.24002 0.2475,-0.85052 0.12046,-1.35666 -0.13913,-0.55435 -0.0507,-1.1375 0.22242,-1.46658 0.39531,-0.47632 0.34076,-0.51185 -0.42578,-0.27731 -1.63527,0.50035 -2.21541,1.25255 -1.54087,1.99791 0.54254,0.5995 0.50617,0.70729 -0.58139,1.72323 -1.25325,1.17071 -2.312656,1.1645 -2.005058,-0.0118 0.25189,-0.96323 -0.299434,-1.20485 -1.55884,-0.68319 -0.889921,0.36862 -1.147043,0.35235 -1.600648,-0.10126 -0.712622,-0.71261 -0.126725,-1.8668 1.104505,-2.17582 0.569453,-0.14293 1.069378,-0.65462 1.390551,-1.4233 0.801913,-1.91924 5.28701,-3.28621 7.03162,-2.1431 0.60991,0.39962 1.25691,0.49071 2.30036,0.32386 0.8856,-0.14161 1.86566,-0.0607 2.51301,0.20742 1.4065,0.58259 7.29828,-0.84328 7.6156,-1.84305 0.24644,-0.77648 1.15283,-0.80071 2.21158,-0.0591 2.96437,2.07633 -0.45607,-1.93778 -4.51521,-5.29889 -20.694767,-17.13596 -49.971833,-16.06723 -69.113865,2.52293 -3.791934,3.68261 -3.836698,4.10062 -0.401009,3.74469 1.085165,-0.11242 2.62685,-0.0162 3.492574,0.21797 1.253638,0.33911 1.606595,0.32975 1.846682,-0.0489 0.503565,-0.79429 0.345016,-1.02812 -0.625514,-0.92251 -0.513225,0.0558 -1.002704,-0.0969 -1.08773,-0.33942 -0.08503,-0.24254 0.09676,-0.44097 0.403969,-0.44097 0.30721,0 0.558564,-0.17474 0.558564,-0.38831 0,-0.26148 0.547274,-0.3105 1.675694,-0.15008 0.921632,0.13101 2.422518,0.25033 3.335306,0.26515 1.40173,0.0228 1.614699,0.1146 1.370587,0.59106 -0.158965,0.31027 -0.217808,0.76275 -0.130761,1.00553 0.08705,0.24278 -0.21222,0.58286 -0.665031,0.75575 -0.823296,0.31434 -0.823296,0.31434 0.146843,0.56697 1.255822,0.32703 2.734028,-0.0495 2.734028,-0.69648 0,-0.5353 1.334033,-2.01212 2.377856,-2.63238 0.504744,-0.29992 0.397175,-0.353 -0.575582,-0.28401 -0.706246,0.0501 -1.260235,-0.0958 -1.352313,-0.35612 -0.265702,-0.75118 1.951757,-0.52814 2.630505,0.26458 0.487973,0.56991 1.040673,0.70556 2.874874,0.70556 2.256398,0 2.280444,0.0105 3.802154,1.668 1.747964,1.9039 1.849755,2.21255 0.729671,2.21255 -0.554411,0 -1.006834,0.38088 -1.466662,1.23473 -0.694987,1.29051 -1.591628,1.58044 -2.288999,0.74016 -0.225746,-0.272 -0.840496,-0.60433 -1.366114,-0.73851 -0.955668,-0.24395 -0.955668,-0.24395 0.274443,-0.82949 1.431989,-0.68164 1.757969,-1.61001 0.753996,-2.14732 -0.796819,-0.42644 -3.37022,1.85862 -3.0526,2.71057 0.102704,0.27548 -0.151395,0.44097 -0.677069,0.44097 -0.462813,0 -0.906374,-0.19469 -0.985696,-0.43266 -0.208711,-0.62613 -4.905467,1.28114 -5.500261,2.23356 -0.413727,0.66248 -0.363368,0.85661 0.439653,1.69478 2.150752,2.2449 4.94926,2.03026 5.9895,-0.45939 0.928973,-2.22335 2.785586,-2.95156 3.46886,-1.36059 0.229154,0.53358 0.451397,1.02381 0.493871,1.0894 0.04247,0.0656 0.564003,-0.24064 1.158953,-0.6805 1.283818,-0.94917 1.469474,-0.8286 1.620569,1.05242 0.06309,0.78543 0.217029,1.89392 0.342092,2.46332 0.131441,0.59846 0.06942,1.1329 -0.147002,1.26666 -0.255059,0.15763 -0.261642,0.44204 -0.02064,0.89233 1.078417,2.01505 -0.339534,2.90992 -1.698445,1.0719 -1.156106,-1.56372 -3.049256,-0.67441 -1.993713,0.93655 0.58631,0.89482 0.468916,1.01323 -1.341201,1.35281 -0.882205,0.1655 -1.566982,0.58869 -2.049808,1.26675 -0.398769,0.56002 -0.95993,1.01822 -1.247024,1.01822 -0.665374,0 -2.241511,1.67231 -2.659926,2.82222 -0.176498,0.48507 -0.830802,1.12007 -1.454009,1.41111 -1.298102,0.60623 -2.70994,2.8658 -2.718562,4.35093 -0.0071,1.22529 -0.832887,1.10606 -1.005815,-0.14523 -0.316819,-2.29246 -6.199709,-1.96796 -7.610182,0.41979 -1.743763,2.95195 0.627119,5.7694 3.031716,3.60275 0.786645,-0.70881 1.470832,-0.30281 0.99332,0.58943 -0.666973,1.24625 -0.425052,2.01599 0.704603,2.24192 0.908395,0.18168 1.058333,0.36984 1.058333,1.32812 0,0.65435 0.255527,1.30524 0.617361,1.57257 0.511171,0.37766 0.537291,0.53605 0.15185,0.92084 -0.385202,0.38454 -0.598223,0.31256 -1.234723,-0.41723 -0.423065,-0.48507 -1.444811,-1.18427 -2.270544,-1.5538 -0.825737,-0.36952 -1.678612,-0.88545 -1.895281,-1.14652 -0.216683,-0.26107 -1.052724,-0.47468 -1.857883,-0.47468 -1.867062,0 -4.094127,-1.67622 -4.094127,-3.08149 0,-1.00391 -1.593081,-3.97406 -2.131536,-3.97406 -0.435811,0 -0.432795,1.11561 0.0061,2.27009 0.273897,0.72041 0.236876,0.90491 -0.181575,0.90491 -0.889409,0 -1.858062,-2.04308 -1.872837,-3.95016 -0.0075,-0.97422 -0.258293,-2.13065 -0.562733,-2.59528 -0.853285,-1.30228 -0.689973,-3.31406 0.399143,-4.91683 0.802104,-1.18041 1.767999,-4.71726 1.855396,-6.79398 0.10057,-2.38968 -2.049427,0.99816 -3.819758,6.01895 -10.952285,31.06153 9.2667,62.95881 43.173038,68.10937 2.637497,0.40065 12.43761,-0.10946 15.768814,-0.8208 z M 62.307363,231.2615 c -2.088399,-2.20521 -2.933164,-3.96087 -2.933164,-6.09593 0,-1.08064 -0.236389,-2.42193 -0.525307,-2.98064 -0.348358,-0.67365 -0.58335,-2.51545 -0.697615,-5.46767 -0.20557,-5.31132 -0.292237,-5.46704 -4.842107,-8.70028 -0.747564,-0.53124 -0.778425,-0.67398 -0.377398,-1.74566 0.389325,-1.04042 0.3576,-1.25135 -0.292259,-1.9431 -0.754031,-0.80263 -0.484699,-1.94445 0.852925,-3.61595 0.209031,-0.26121 0.398011,-0.81683 0.419954,-1.23472 0.02194,-0.41789 0.0692,-1.21224 0.105018,-1.76522 0.232163,-3.5843 5.754768,-4.73326 8.884567,-1.84841 0.485069,0.44711 1.531242,1.16803 2.32483,1.60204 0.793588,0.43402 1.708488,1.23875 2.033115,1.7883 0.639561,1.08269 2.612936,2.46209 3.52227,2.46209 0.549399,0 2.784715,1.12256 3.673256,1.84468 0.644543,0.52383 0.539666,2.09992 -0.264583,3.97616 -0.388056,0.9053 -0.705555,2.33687 -0.705555,3.18128 0,2.19698 -0.517268,3.26673 -1.897952,3.92514 -1.166957,0.55648 -1.982604,1.70923 -1.982604,2.80201 0,0.81763 -1.281151,3.05463 -2.276588,3.97512 -0.494125,0.45693 -0.898412,1.09739 -0.898412,1.42325 0,0.32585 -0.452839,0.85996 -1.006312,1.18691 -1.527112,0.90209 -1.858021,4.74709 -0.575353,6.68533 1.109465,1.67651 1.106855,1.69179 -0.289408,1.69179 -0.857031,0 -1.452908,-0.30346 -2.251318,-1.14652 z m 29.973343,-60.57396 c -0.02932,-0.38901 0.09537,-0.79917 0.27705,-0.91145 0.445587,-0.27539 0.421439,-1.22085 -0.03118,-1.22085 -0.198829,0 -0.504169,0.37523 -0.678533,0.83383 -0.326881,0.85977 -1.260527,1.42885 -1.79861,1.0963 -0.616446,-0.38099 0.586141,-2.28291 1.443486,-2.28291 0.242966,0 0.342925,-0.29138 0.237826,-0.69328 -0.125138,-0.47852 0.03426,-0.7617 0.514607,-0.91416 0.825253,-0.26192 1.090546,-0.0524 1.24907,0.98632 0.06478,0.42449 0.451192,1.1267 0.858689,1.56046 0.847954,0.9026 0.657006,1.88289 -0.366769,1.88289 -0.378276,0 -0.904804,0.0833 -1.170065,0.18507 -0.301208,0.11558 -0.502299,-0.0805 -0.535573,-0.52222 z M 74.35351,164.07503 c -0.693113,-1.05782 -0.299233,-3.56654 0.740314,-4.71523 0.877069,-0.96915 -0.06945,-2.09345 -1.762421,-2.09345 -0.697752,0 -2.282765,-1.38298 -1.609982,-1.40477 0.467998,-0.0152 0.468393,-0.0556 0.0035,-0.34954 -0.353043,-0.22321 -0.780232,-0.16566 -1.30041,0.17517 -3.531281,2.31379 -6.624905,2.67878 -6.656899,0.78539 -0.009,-0.53357 0.110049,-0.97014 0.264584,-0.97014 0.154538,0 0.280977,0.13126 0.280977,0.29168 0,0.16043 0.511407,0.21662 1.136459,0.12488 1.066401,-0.15651 1.086753,-0.18518 0.330115,-0.46508 -1.296938,-0.47973 -0.518826,-1.00981 1.482189,-1.00981 1.016896,0 1.999714,-0.14399 2.18404,-0.31998 0.385674,-0.36822 5.715847,-0.61239 6.50875,-0.29815 1.00572,0.39858 4.054714,0.54975 4.65105,0.2306 0.988751,-0.52917 10.255754,-0.57677 10.430153,-0.0536 0.0808,0.2424 -0.144103,0.54701 -0.499784,0.67689 -0.944389,0.34486 -3.317515,2.95673 -3.72589,4.10073 -0.368307,1.03175 -2.800978,2.50849 -6.540306,3.97025 -1.022113,0.39956 -2.102679,1.07525 -2.401256,1.50152 -0.811177,1.15813 -2.702694,1.06268 -3.515211,-0.17738 z m -8.01195,-7.40463 c -0.339549,-0.0887 -0.895174,-0.0887 -1.234722,0 -0.339549,0.0887 -0.06174,0.16133 0.617361,0.16133 0.679097,0 0.956909,-0.0726 0.617361,-0.16133 z m -7.595961,1.94601 c 0.08461,-0.25746 0.595467,-0.52001 1.135224,-0.58345 0.691681,-0.0813 0.935962,0.0229 0.827532,0.35278 -0.08461,0.25746 -0.595467,0.52001 -1.135224,0.58345 -0.691681,0.0813 -0.935962,-0.0229 -0.827532,-0.35278 z m -4.310288,-1.41266 c -0.864119,-0.36317 -0.850657,-0.38146 0.666005,-0.9052 1.372711,-0.47402 1.581372,-0.47481 1.843186,-0.007 0.187668,0.33534 0.61982,0.46552 1.186078,0.35727 1.103104,-0.21087 1.189563,0.45517 0.09709,0.74794 -1.16454,0.31208 -2.786986,0.2295 -3.79236,-0.19303 z m 7.408332,-1.70129 c 0,-0.19402 0.238125,-0.35277 0.529167,-0.35277 0.291042,0 0.529167,0.15875 0.529167,0.35277 0,0.19403 -0.238125,0.35278 -0.529167,0.35278 -0.291042,0 -0.529167,-0.15875 -0.529167,-0.35278 z m 40.922217,21.17908 c 0,-0.1872 -0.35061,-0.528 -0.77914,-0.75735 -0.42853,-0.22934 -1.04986,-0.75086 -1.38074,-1.15894 -0.33088,-0.40807 -0.715812,-0.62818 -0.855396,-0.48913 -0.139587,0.13905 0.307126,0.81374 0.992686,1.49931 1.22272,1.22271 2.02259,1.58105 2.02259,0.90611 z M 62.011125,161.83805 c -0.108243,-0.17514 0.04847,-0.69278 0.348262,-1.15031 0.513754,-0.78409 0.428875,-1.30472 -0.212704,-1.30472 -0.625567,0 -1.422936,2.14658 -0.990787,2.66729 0.435981,0.52532 1.194703,0.33702 0.855229,-0.21226 z"
       id="path964" />
  </g>
</svg>
